<svg version="1.0" xmlns="http://www.w3.org/2000/svg" width="260.000000pt" height="255.000000pt" viewBox="0 0 260.000000 255.000000" preserveAspectRatio="xMidYMid meet">
  <g transform="matrix(0.194711, 0, 0, -0.190592, -123.265146, 366.379888)" fill="#3a1681" stroke="none" style="">
    <path d="M1170 1885 c-245 -45 -461 -264 -505 -512 -19 -105 -18 -151 4 -260
27 -130 76 -218 176 -319 65 -65 98 -90 166 -122 46 -22 101 -44 122 -47 l37
-7 0 343 0 344 178 -178 c169 -169 181 -178 213 -175 l34 3 5 339 5 340 49
-55 c203 -224 160 -573 -89 -733 -82 -53 -132 -68 -238 -74 l-98 -5 3 -81 3
-81 92 2 c169 3 301 61 428 188 123 122 178 244 191 416 8 114 -14 220 -67
329 -59 119 -174 235 -292 290 -45 21 -99 42 -119 46 l-38 6 0 -291 c0 -160
-3 -291 -8 -291 -4 0 -63 56 -132 125 l-125 126 -80 -3 -80 -3 -5 -339 -5
-340 -49 55 c-26 29 -64 88 -84 129 -31 67 -36 86 -40 176 -3 79 -1 113 13
155 30 92 65 151 124 210 93 92 210 141 338 141 l73 0 0 84 0 84 -62 -1 c-35
0 -97 -7 -138 -14z"></path>
  </g>
</svg>